<svg width="515" height="575" viewBox="0 0 515 575" fill="none" xmlns="http://www.w3.org/2000/svg">
<path fill-rule="evenodd" clip-rule="evenodd" d="M29.2301 289.733C34.3723 231.63 12.2197 168.433 44.1943 119.684C76.626 70.2383 139.673 55.1994 195.578 36.1169C252.34 16.7415 314.23 -15.7414 368.951 8.83161C423.095 33.1458 435.382 102.587 461.95 155.735C483.663 199.172 498.828 242.316 509.368 289.733C523.249 352.178 563.131 419.038 533.02 475.455C502.811 532.055 427.259 542.999 365.357 559.555C306.623 575.263 247.062 580.671 187.637 567.829C122.545 553.762 45.0249 541.133 12.0232 483.196C-20.8112 425.552 23.3795 355.841 29.2301 289.733Z" fill="#401796" fill-opacity="0.6"/>
</svg>